<?xml version="1.0" encoding="utf-8"?>
<!-- Generator: Adobe Illustrator 24.0.1, SVG Export Plug-In . SVG Version: 6.00 Build 0)  -->
<svg version="1.1" id="Layer_1" xmlns="http://www.w3.org/2000/svg" xmlns:xlink="http://www.w3.org/1999/xlink" x="0px" y="0px"
	 width="640px" height="640px" viewBox="0 0 640 640" style="enable-background:new 0 0 640 640;" xml:space="preserve">
<path d="M256,368c0-15.7,2.1-7.2-85-181.5C162.1,168.8,145,160,128,160c-17.1,0-34.1,8.8-43,26.5C-1.3,359.3,0,351.8,0,368h0
	c0,44.2,57.3,80,128,80S256,412.2,256,368L256,368z M55.8,352c5.8-12,52.4-104.4,72.2-144l0,0c0.1,0,66,131.3,72.1,144H55.8z"/>
<path d="M524.9,137.4l-126-42.1c0.5-3.5,1.1-7,1.1-10.7c0-44.2-35.8-80-80-80c-30,0-55.8,16.7-69.5,41L130.4,5.4
	c-8.4-2.8-17.5,1.7-20.2,10.1L105,30.6c-2.8,8.4,1.7,17.5,10.1,20.2l125.7,42.1c3.4,32,25.4,58.1,55.1,67.5V592H112
	c-8.8,0-16,7.2-16,16v16c0,8.8,7.2,16,16,16h216c8.8,0,16-7.2,16-16V160.5c13.3-4.2,25.1-11.6,34.3-21.5l131.3,43.9
	c8.4,2.8,17.5-1.7,20.3-10.1l5.1-15.2C537.8,149.2,533.2,140.2,524.9,137.4z M320,116.5c-17.6,0-32-14.4-32-32c0-17.6,14.4-32,32-32
	s32,14.4,32,32C352,102.2,337.6,116.5,320,116.5z"/>
<path d="M640,496c0-15.7,2.1-7.2-85-181.5C546.1,296.8,529,288,512,288c-17.1,0-34.1,8.8-43,26.5c-86.4,172.8-85,165.3-85,181.5h0
	c0,44.2,57.3,80,128,80S640,540.2,640,496L640,496z M439.8,480c5.8-12,52.4-104.4,72.2-144l0,0c0.1,0,0.3,0,0.3,0
	c18.4,37.4,65.7,131.3,71.9,144H439.8z"/>
</svg>
