<?xml version="1.0" encoding="utf-8"?>
<!-- Generator: Adobe Illustrator 26.3.1, SVG Export Plug-In . SVG Version: 6.00 Build 0)  -->
<svg version="1.1" id="Layer_1" xmlns="http://www.w3.org/2000/svg" xmlns:xlink="http://www.w3.org/1999/xlink" x="0px" y="0px"
	 viewBox="0 0 128 128" style="enable-background:new 0 0 128 128;" xml:space="preserve">
<path d="M128,30.2c0-9.6-8.3-17.4-18.6-17.4c-7.9,0-15,4.7-17.6,11.8c-0.2,0.6-1.3,4.2-2.3,4.2h-16c-5.3,0-9.6,4.3-9.6,9.6h25.6
	c3.1,0,7.6,0.2,11.3-10.5c1.2-3.3,4.6-5.5,8.5-5.5c4.9,0,9,3.5,9,7.8c0,3.5-0.9,6.4-4.8,8.2c-2.5,1.2-4.1,3.6-4.1,6.3
	c0,2.7,1.6,5.1,4.1,6.3c3.9,1.8,4.8,4.6,4.8,8.2c0,4.3-4,7.8-9,7.8c-3.9,0-7.3-2.2-8.5-5.5c-2-6-4.1-10.5-11.3-10.5h-3.2
	c-5.3,0-9.6,4.3-9.6,9.6h12.8c0.9,0,2,3.5,2.3,4.2c2.6,7.1,9.6,11.8,17.6,11.8c10.2,0,18.6-7.8,18.6-17.4c0-5.8-1.6-10.6-6.5-14.6
	C126.4,40.9,128,36.1,128,30.2z M46.9,77.4c-2.2,2.2-5.5,5.2-0.5,15.4c1.5,3.2,0.6,7.1-2.2,9.9c-3.5,3.5-8.8,3.8-11.9,0.8
	c-2.5-2.5-3.9-5.2-2.4-9.2c1-2.6,0.4-5.4-1.6-7.4c-1.9-1.9-4.8-2.5-7.4-1.6c-4,1.5-6.7,0.1-9.2-2.4c-3.1-3.1-2.7-8.4,0.8-11.9
	c2.8-2.8,6.8-3.6,9.9-2.2c5.7,2.8,10.4,4.5,15.4-0.5l11.7-11.7c3.7-3.7,3.7-9.8,0-13.6L31,61.6c-0.6,0.6-4-1.1-4.6-1.4
	c-6.8-3.2-15.2-1.5-20.8,4.1c-7.2,7.2-7.6,18.7-0.8,25.5c4.1,4.1,8.6,6.4,14.9,5.7c-0.7,6.2,1.6,10.7,5.7,14.9
	c6.8,6.8,18.2,6.4,25.5-0.8c5.6-5.6,7.2-14,4.1-20.8c-0.3-0.6-2-3.9-1.4-4.6l5.3-5.3c3.7-3.7,3.7-9.8,0-13.6L46.9,77.4L46.9,77.4z"
	/>
</svg>
