<?xml version="1.0" encoding="utf-8"?>
<!-- Generator: Adobe Illustrator 26.3.1, SVG Export Plug-In . SVG Version: 6.00 Build 0)  -->
<svg version="1.1" id="Layer_1" xmlns="http://www.w3.org/2000/svg" xmlns:xlink="http://www.w3.org/1999/xlink" x="0px" y="0px"
	 viewBox="0 0 128 128" style="enable-background:new 0 0 128 128;" xml:space="preserve">
<path d="M40,37V27c0-1.6,1.3-3,3-3h10c1.7,0,3,1.4,3,3v10c0,1.7-1.3,3-3,3H43C41.3,40,40,38.7,40,37z M75,40h10c1.7,0,3-1.3,3-3V27
	c0-1.6-1.3-3-3-3H75c-1.7,0-3,1.4-3,3v10C72,38.7,73.3,40,75,40z M43,64h10c1.7,0,3-1.3,3-3V51c0-1.7-1.3-3-3-3H43c-1.7,0-3,1.3-3,3
	v10C40,62.7,41.3,64,43,64z M75,64h10c1.7,0,3-1.3,3-3V51c0-1.7-1.3-3-3-3H75c-1.7,0-3,1.3-3,3v10C72,62.7,73.3,64,75,64z M56,85V75
	c0-1.7-1.3-3-3-3H43c-1.7,0-3,1.3-3,3v10c0,1.7,1.3,3,3,3h10C54.7,88,56,86.7,56,85z M75,88h10c1.7,0,3-1.3,3-3V75c0-1.7-1.3-3-3-3
	H75c-1.7,0-3,1.3-3,3v10C72,86.7,73.3,88,75,88z M120,119v9H8v-9c0-1.7,1.4-3,3-3h4.9V6c0-3.3,2.7-6,6-6h84.2c3.3,0,6,2.7,6,6v110
	h4.9C118.7,116,120,117.3,120,119z M27.9,115.8H56V99c0-1.7,1.3-3,3-3h10c1.7,0,3,1.3,3,3v16.8h28.1V12.2L28,12L27.9,115.8z"/>
</svg>
