<?xml version="1.0" encoding="utf-8"?>
<!-- Generator: Adobe Illustrator 26.3.1, SVG Export Plug-In . SVG Version: 6.00 Build 0)  -->
<svg version="1.1" id="Layer_1" xmlns="http://www.w3.org/2000/svg" xmlns:xlink="http://www.w3.org/1999/xlink" x="0px" y="0px"
	 viewBox="0 0 128 128" style="enable-background:new 0 0 128 128;" xml:space="preserve">
<path d="M27.4,37.4c1.4-1.1,2.4-2.7,2.5-4.5l0.4-4.4l2.4,3.7c1,1.5,2.6,2.5,4.3,2.8c1.8,0.3,3.6-0.2,5-1.4L52.6,25
	c2-1.7,2.3-4.7,0.7-6.8c-1.7-2-4.7-2.3-6.8-0.7l-7.7,6.3l-5.5-8.3c-1.5-2.2-4.2-3.3-6.8-2.7c-2.6,0.7-4.5,2.9-4.8,5.6l-1,9.9l-9.7-2
	c-2.6-0.5-5.3,0.7-6.7,3c-1.4,2.3-1.2,5.2,0.5,7.3l6.3,7.7l-8.3,5.5c-2.3,1.5-3.3,4.2-2.6,6.8c0.7,2.6,2.8,4.5,5.6,4.8l9.9,1l-2,9.7
	c-0.5,2.6,1.2,5.1,3.8,5.7c0.3,0.1,0.6,0.1,1,0.1c2.2,0,4.2-1.6,4.7-3.9l2.7-13.3c0.3-1.8-0.1-3.6-1.1-5c-1.1-1.4-2.7-2.4-4.5-2.5
	l-4.4-0.4l3.7-2.4c1.5-1,2.5-2.6,2.8-4.4c0.3-1.8-0.2-3.6-1.4-5L18,37.7l4.3,0.9C24.1,38.9,25.9,38.5,27.4,37.4L27.4,37.4z
	 M107,74.9c-3.7-1-10.8,3.1-11.7,6.8s4.7,4.6,8.4,5.6c3.7,1,6.8-0.8,7.8-4.5C112.5,79.1,110.7,75.9,107,74.9L107,74.9z M123.4,68
	L121,47.7c-0.8-6.5-5.4-11.8-11.7-13.5l-33.3-8.9c-6.3-1.7-13,0.6-16.9,5.8L46.7,47.5c-5.7,2.1-10.4,6.8-12,13.1l-7,26.3
	c-0.7,2.6,0.8,5.2,3.4,5.9l3.1,0.8c2.6,0.7,5.2-0.8,5.9-3.4l1.2-4.6l68,18.2l-1.2,4.6c-0.7,2.6,0.8,5.2,3.4,5.9l3.1,0.8
	c2.6,0.7,5.2-0.8,5.9-3.4l5.4-20.1l1.7-6.2C129,79.1,127.4,72.7,123.4,68L123.4,68z M66.7,36.8c1.6-2.1,4.2-3,6.8-2.3l33.3,8.9
	c2.5,0.7,4.4,2.8,4.7,5.4l1.6,12.8L58.9,47.2L66.7,36.8L66.7,36.8z M118.1,82.9l-2.5,9.3c-0.5,1.7-2.2,2.7-3.9,2.3l-68-18.2
	C42,75.8,41,74,41.4,72.3l2.5-9.3c1.4-5.1,6.6-8.2,11.8-6.8l55.6,14.9C116.4,72.5,119.4,77.8,118.1,82.9L118.1,82.9z M57.5,61.7
	c-3.7-1-6.8,0.8-7.8,4.5c-1,3.7,0.8,6.8,4.5,7.8c3.7,1,9.1,3.1,10.1-0.6C65.3,69.7,61.2,62.7,57.5,61.7L57.5,61.7z"/>
</svg>
