<?xml version="1.0" encoding="utf-8"?>
<!-- Generator: Adobe Illustrator 26.3.1, SVG Export Plug-In . SVG Version: 6.00 Build 0)  -->
<svg version="1.1" id="Layer_1" xmlns="http://www.w3.org/2000/svg" xmlns:xlink="http://www.w3.org/1999/xlink" x="0px" y="0px"
	 viewBox="0 0 128 128" style="enable-background:new 0 0 128 128;" xml:space="preserve">
<path d="M117,51.5l-10.2-25.4c-3.3-8.1-11.1-13.4-19.8-13.4H41c-8.7,0-16.5,5.3-19.8,13.4L11,51.5c-6.6,4.6-11,12.3-11,21v36.3
	c0,3.5,2.9,6.4,6.4,6.4h4.3c3.5,0,6.4-2.9,6.4-6.4v-6.4h93.9v6.4c0,3.5,2.9,6.4,6.4,6.4h4.3c3.5,0,6.4-2.9,6.4-6.4V72.5
	C128,63.8,123.6,56.2,117,51.5L117,51.5z M33.1,30.9c1.3-3.2,4.4-5.3,7.9-5.3h46c3.5,0,6.6,2.1,7.9,5.3l6.4,16H26.7L33.1,30.9z
	 M115.2,85.3c0,2.4-1.9,4.3-4.3,4.3H17.1c-2.4,0-4.3-1.9-4.3-4.3V72.5c0-7.1,5.7-12.8,12.8-12.8h76.8c7.1,0,12.8,5.7,12.8,12.8V85.3
	z M29.9,66.1c-5.1,0-8.5,3.4-8.5,8.5s3.4,8.5,8.5,8.5s12.8,0.9,12.8-4.3C42.7,73.8,35,66.1,29.9,66.1z M98.1,66.1
	c-5.1,0-12.8,7.7-12.8,12.8c0,5.1,7.7,4.3,12.8,4.3s8.5-3.4,8.5-8.5C106.7,69.5,103.3,66.1,98.1,66.1L98.1,66.1z"/>
</svg>
