<?xml version="1.0" encoding="utf-8"?>
<!-- Generator: Adobe Illustrator 26.3.1, SVG Export Plug-In . SVG Version: 6.00 Build 0)  -->
<svg version="1.1" id="Layer_1" xmlns="http://www.w3.org/2000/svg" xmlns:xlink="http://www.w3.org/1999/xlink" x="0px" y="0px"
	 viewBox="0 0 128 128" style="enable-background:new 0 0 128 128;" xml:space="preserve">
<path d="M113.6,86.4c-3.8,0-7.3,1.5-9.8,3.9l-15.6-8.9c0.9-2.4,1.5-5,1.5-7.8c0-12.4-10-22.4-22.4-22.4c-1.7,0-3.3,0.2-4.9,0.6
	L55.9,38c3-2.6,4.9-6.5,4.9-10.8c0-8-6.4-14.4-14.4-14.4S32,19.3,32,27.3s6.4,14.4,14.4,14.4c0.2,0,0.4,0,0.5-0.1l6.7,14.3
	c-5.3,4.1-8.8,10.5-8.8,17.7C44.8,86,54.8,96,67.2,96c6.1,0,11.7-2.5,15.8-6.5l16.4,9.4c-0.1,0.6-0.2,1.3-0.2,1.9
	c0,8,6.4,14.4,14.4,14.4s14.4-6.4,14.4-14.4S121.6,86.4,113.6,86.4z M46.4,32c-2.6,0-4.8-2.2-4.8-4.8s2.2-4.8,4.8-4.8
	s4.8,2.2,4.8,4.8S49,32,46.4,32z M67.2,86.4c-7.1,0-12.8-5.7-12.8-12.8s5.7-12.8,12.8-12.8S80,66.6,80,73.6S74.3,86.4,67.2,86.4z
	 M113.6,105.6c-2.6,0-4.8-2.2-4.8-4.8s2.2-4.8,4.8-4.8c2.6,0,4.8,2.2,4.8,4.8S116.2,105.6,113.6,105.6z M102.7,53.4l-3.8-5.1
	l-9.6,7.2l3.8,5.1L102.7,53.4z M115.2,51.2c7.1,0,12.8-5.7,12.8-12.8s-5.7-12.8-12.8-12.8s-12.8,5.7-12.8,12.8
	S108.1,51.2,115.2,51.2z M30.4,76.8H40v-6.4h-9.6V76.8z M12.8,60.8C5.7,60.8,0,66.6,0,73.6s5.7,12.8,12.8,12.8s12.8-5.7,12.8-12.8
	S19.9,60.8,12.8,60.8z"/>
</svg>
