<?xml version="1.0" encoding="utf-8"?>
<!-- Generator: Adobe Illustrator 26.3.1, SVG Export Plug-In . SVG Version: 6.00 Build 0)  -->
<svg version="1.1" id="Layer_1" xmlns="http://www.w3.org/2000/svg" xmlns:xlink="http://www.w3.org/1999/xlink" x="0px" y="0px"
	 viewBox="0 0 128 128" style="enable-background:new 0 0 128 128;" xml:space="preserve">
<path d="M29.4,69.4c1.6,1.6,4.1,1.6,5.7,0L48,56.5l21.2,21.2c1.6,1.6,4.1,1.6,5.7,0l27.6-27.6l7.4,7.4c3.8,3.8,10.2,1.1,10.2-4.2V28
	c0-2.2-1.8-4-4-4H90.8c-5.3,0-8,6.5-4.2,10.2l7.4,7.4L72,63.5L50.8,42.3c-1.6-1.6-4.1-1.6-5.7,0L26.6,60.9c-1.6,1.6-1.6,4.1,0,5.7
	C26.6,66.6,29.4,69.4,29.4,69.4z M124,100H12V20c0-2.2-1.8-4-4-4H4c-2.2,0-4,1.8-4,4v84c0,4.4,3.6,8,8,8h116c2.2,0,4-1.8,4-4v-4
	C128,101.8,126.2,100,124,100z"/>
</svg>
