<?xml version="1.0" encoding="utf-8"?>
<!-- Generator: Adobe Illustrator 26.3.1, SVG Export Plug-In . SVG Version: 6.00 Build 0)  -->
<svg version="1.1" id="Layer_1" xmlns="http://www.w3.org/2000/svg" xmlns:xlink="http://www.w3.org/1999/xlink" x="0px" y="0px"
	 viewBox="0 0 128 128" style="enable-background:new 0 0 128 128;" xml:space="preserve">
<path d="M124,100h-4V88c0-28.2-20.9-51.5-48-55.4V28h12c2.2,0,4-1.8,4-4v-4c0-2.2-1.8-4-4-4H44c-2.2,0-4,1.8-4,4v4c0,2.2,1.8,4,4,4
	h12v4.6C28.9,36.5,8,59.8,8,88v12H4c-2.2,0-4,1.8-4,4v4c0,2.2,1.8,4,4,4h120c2.2,0,4-1.8,4-4v-4C128,101.8,126.2,100,124,100z
	 M108,100H20V88c0-24.3,19.7-44,44-44s44,19.7,44,44V100z"/>
</svg>
