<?xml version="1.0" encoding="utf-8"?>
<!-- Generator: Adobe Illustrator 26.3.1, SVG Export Plug-In . SVG Version: 6.00 Build 0)  -->
<svg version="1.1" id="Layer_1" xmlns="http://www.w3.org/2000/svg" xmlns:xlink="http://www.w3.org/1999/xlink" x="0px" y="0px"
	 viewBox="0 0 128 128" style="enable-background:new 0 0 128 128;" xml:space="preserve">
<path d="M117.3,7.1H10.7C4.8,7.1,0,11.9,0,17.8v71.1c0,5.9,4.8,10.7,10.7,10.7h42.7l-3.6,10.7h-16c-3,0-5.3,2.4-5.3,5.3
	s2.4,5.3,5.3,5.3h60.4c3,0,5.3-2.4,5.3-5.3s-2.4-5.3-5.3-5.3h-16l-3.6-10.7h42.7c5.9,0,10.7-4.8,10.7-10.7V17.8
	C128,11.9,123.2,7.1,117.3,7.1z M113.8,85.3H14.2v-64h99.6V85.3z"/>
</svg>
