<?xml version="1.0" encoding="utf-8"?>
<!-- Generator: Adobe Illustrator 26.3.1, SVG Export Plug-In . SVG Version: 6.00 Build 0)  -->
<svg version="1.1" id="Layer_1" xmlns="http://www.w3.org/2000/svg" xmlns:xlink="http://www.w3.org/1999/xlink" x="0px" y="0px"
	 viewBox="0 0 128 128" style="enable-background:new 0 0 128 128;" xml:space="preserve">
<path d="M127.8,30.3v10.6c0,10.8-8.7,19.5-19.5,19.5h-1.8v53.2c0,3.9-3.2,7.1-7.1,7.1H81.7c-3.9,0-7.1-3.2-7.1-7.1V92.4H46.3v21.3
	c0,3.9-3.2,7.1-7.1,7.1H21.5c-3.9,0-7.1-3.2-7.1-7.1V76.4c0-3.2,0.6-6.3,1.7-9.2C6.9,65.5,0.2,57.4,0.2,48c0-2.9,2.4-5.3,5.3-5.3
	s5.3,2.4,5.3,5.3c0,4.9,4,8.9,8.9,8.9H23c4.7-4.4,11-7.1,17.9-7.1h26.6v-39c0-3.2,3.8-4.7,6.1-2.5l6,6.1l0,0c0.1,0,0.2,0,0.3,0h16.9
	c4.7,0,9,2.6,11.1,6.9l0.1,0.2h10.9C123.8,21.4,127.8,25.4,127.8,30.3z M95.9,66.8l-25.5-6.4H41c-8.8,0-15.9,7.1-16,16v33.7h10.6
	V81.7h49.6v28.4h10.6V66.8z M117.2,32.1h-15.7L98.4,26c-0.3-0.6-0.9-1-1.6-1H80c-1,0-1.8,0.8-1.8,1.8v24.7l17.7,4.4v-6h12.4
	c4.9,0,8.9-4,8.9-8.9V32.1z M95.9,32.1c0,2-1.6,3.5-3.5,3.5s-3.5-1.6-3.5-3.5c0-2,1.6-3.5,3.5-3.5S95.9,30.1,95.9,32.1z"/>
</svg>
