<?xml version="1.0" encoding="utf-8"?>
<!-- Generator: Adobe Illustrator 26.3.1, SVG Export Plug-In . SVG Version: 6.00 Build 0)  -->
<svg version="1.1" id="Layer_1" xmlns="http://www.w3.org/2000/svg" xmlns:xlink="http://www.w3.org/1999/xlink" x="0px" y="0px"
	 viewBox="0 0 128 128" style="enable-background:new 0 0 128 128;" xml:space="preserve">
<path d="M108.5,24.5l-21-21C85.2,1.3,82.2,0,79,0H28c-6.6,0-12,5.4-12,12v104c0,6.6,5.4,12,12,12h72c6.6,0,12-5.4,12-12V33
	C112,29.8,110.7,26.7,108.5,24.5z M80,13l19,19H80L80,13L80,13z M100,116H28V12h40v26c0,3.3,2.7,6,6,6h26V116z M68,54
	c0-1.1-0.9-2-2-2h-4c-1.1,0-2,0.9-2,2v6c-5.9,0.2-10.7,5.1-10.7,11.3c0,5,3.2,9.5,7.9,10.8l11.2,3.4c1.3,0.4,2.2,1.7,2.2,3.2
	c0,1.8-1.3,3.3-2.9,3.3h-7c-1.1,0-2.2-0.3-3.2-0.9c-0.8-0.5-1.8-0.5-2.5,0.2L52,94.1c-0.9,0.8-0.8,2.3,0.1,3c2.3,1.7,5,2.7,7.8,2.8
	v6.1c0,1.1,0.9,2,2,2h4c1.1,0,2-0.9,2-2v-6c5.9-0.2,10.7-5.1,10.7-11.3c0-5-3.2-9.5-7.9-10.8l-11.2-3.4c-1.3-0.4-2.2-1.7-2.2-3.2
	c0-1.8,1.3-3.3,3-3.3h7c1.1,0,2.2,0.3,3.2,0.9c0.8,0.5,1.8,0.5,2.5-0.2l2.9-2.8c0.9-0.8,0.8-2.3-0.1-3c-2.3-1.7-5-2.7-7.8-2.8V54z
	 M38,28h20c1.1,0,2-0.9,2-2v-4c0-1.1-0.9-2-2-2H38c-1.1,0-2,0.9-2,2v4C36,27.1,36.9,28,38,28z M60,42v-4c0-1.1-0.9-2-2-2H38
	c-1.1,0-2,0.9-2,2v4c0,1.1,0.9,2,2,2h20C59.1,44,60,43.1,60,42z"/>
</svg>
