<?xml version="1.0" encoding="utf-8"?>
<!-- Generator: Adobe Illustrator 26.3.1, SVG Export Plug-In . SVG Version: 6.00 Build 0)  -->
<svg version="1.1" id="Layer_1" xmlns="http://www.w3.org/2000/svg" xmlns:xlink="http://www.w3.org/1999/xlink" x="0px" y="0px"
	 viewBox="0 0 128 128" style="enable-background:new 0 0 128 128;" xml:space="preserve">
<path d="M64,0C28.6,0,0,28.6,0,64s28.6,64,64,64s64-28.6,64-64S99.4,0,64,0z M110.3,41.3H92.9c-1.7-9.4-4.5-17.8-8.1-24.4
	C95.9,21.8,104.9,30.5,110.3,41.3L110.3,41.3z M64,12.4c4.8,0,12.5,10.6,16.3,28.9H47.7C51.5,23,59.2,12.4,64,12.4z M12.4,64
	c0-3.5,0.4-7,1-10.3h20.1C33.2,57.1,33,60.5,33,64s0.2,6.9,0.4,10.3H13.4C12.7,71,12.4,67.5,12.4,64z M17.7,86.7h17.3
	c1.7,9.4,4.5,17.8,8.1,24.4C32.1,106.2,23.1,97.5,17.7,86.7z M35.1,41.3H17.7c5.3-10.8,14.3-19.5,25.4-24.4
	C39.6,23.5,36.8,31.9,35.1,41.3L35.1,41.3z M64,115.6c-4.8,0-12.5-10.6-16.3-28.9h32.6C76.5,105,68.8,115.6,64,115.6L64,115.6z
	 M82.1,74.3H45.9c-0.3-3.3-0.5-6.7-0.5-10.3c0-3.6,0.2-7,0.5-10.3h36.2c0.3,3.3,0.5,6.7,0.5,10.3C82.6,67.6,82.4,71,82.1,74.3z
	 M84.9,111.1c3.5-6.7,6.3-15,8.1-24.4h17.3C104.9,97.5,95.9,106.2,84.9,111.1z M94.5,74.3C94.8,70.9,95,67.5,95,64
	c0-3.5-0.2-6.9-0.4-10.3h20.1c0.7,3.3,1,6.8,1,10.3s-0.4,7-1,10.3H94.5z"/>
</svg>
