<?xml version="1.0" encoding="utf-8"?>
<!-- Generator: Adobe Illustrator 26.3.1, SVG Export Plug-In . SVG Version: 6.00 Build 0)  -->
<svg version="1.1" id="Layer_1" xmlns="http://www.w3.org/2000/svg" xmlns:xlink="http://www.w3.org/1999/xlink" x="0px" y="0px"
	 viewBox="0 0 128 128" style="enable-background:new 0 0 128 128;" xml:space="preserve">
<path d="M46,29.9c0-1.6-1.3-2.9-2.9-2.9c-0.8,0-1.5,0.3-2.1,0.9l-6.6,6.6c-0.5,0.5-0.9,1.3-0.9,2.1c0,1.6,1.3,2.9,2.9,2.9h4.1
	c0.8,0,1.5-0.3,2.1-0.9l2.4-2.4c0.5-0.5,0.9-1.3,0.9-2.1V29.9z M64,0C28.6,0,0,28.6,0,64s28.6,64,64,64s64-28.6,64-64S99.4,0,64,0z
	 M109.2,88.9h-3.5c-1.2,0-2.5-0.5-3.3-1.4L97.9,83c-1.5-1.5-3.6-2.4-5.8-2.4h-4.7L76.2,71c-2.1-1.8-4.8-2.8-7.6-2.8h-8.1
	c-2.1,0-4.2,0.6-6,1.7l-11.1,6.6c-3.5,2.1-5.7,5.9-5.7,10.1v6.2c0,3.7,1.7,7.2,4.7,9.4l5.7,4.3c2.2,1.7,6.3,3,9.1,3h5.2
	c2.3,0,4.1,1.9,4.1,4.1v1.8c-0.9,0.1-1.7,0.1-2.6,0.1c-28.5,0-51.6-23.1-51.6-51.6c0-27.9,22.4-50.7,50.1-51.5L55,18.1
	c-0.5,0.4-0.8,1-0.8,1.7v5.2c0,1.1,0.9,2.1,2.1,2.1h4.1c1.1,0,2.1-0.9,2.1-2.1v-2.1l4.1-4.1h5.3c1.6,0,2.9,1.3,2.9,2.9
	c0,0.8-0.3,1.5-0.9,2.1l-6.9,6.9c-0.3,0.3-0.7,0.6-1.1,0.7l-10.3,3.4c-0.9,0.3-1.4,1.1-1.4,2c0,1.7-0.7,3.3-1.9,4.5l-5.2,5.2
	c-0.8,0.8-1.2,1.8-1.2,2.9v6.6c0,2.3,1.9,4.1,4.1,4.1h5.7c1.6,0,3-0.9,3.7-2.3l2.4-4.8c0.4-0.7,1.1-1.1,1.9-1.1h0.8
	c1.1,0,2.1,0.9,2.1,2.1c0,1.1,0.9,2.1,2.1,2.1h4.1c1.1,0,2.1-0.9,2.1-2.1v-0.6c0-0.9,0.6-1.7,1.4-2l8.2-2.7c1.7-0.6,2.8-2.1,2.8-3.9
	v-1.2c0-2.3,1.9-4.1,4.1-4.1h9.5c1.6,0,2.9,1.3,2.9,2.9v2.4c0,1.6-1.3,2.9-2.9,2.9h-8.3c-0.8,0-1.5,0.3-2.1,0.9l-2.4,2.4
	c-0.5,0.5-0.9,1.3-0.9,2.1c0,1.6,1.3,2.9,2.9,2.9h4.1c0.8,0,1.5,0.3,2.1,0.9l2.4,2.4c0.5,0.5,0.9,1.3,0.9,2.1v2.2l-3.2,3.2
	c-1.2,1.2-1.2,3.1,0,4.3l8.2,8.4c0.8,0.8,1.8,1.2,2.9,1.2h5.2C111.8,83.5,110.6,86.2,109.2,88.9L109.2,88.9z"/>
</svg>
