<?xml version="1.0" encoding="utf-8"?>
<!-- Generator: Adobe Illustrator 26.3.1, SVG Export Plug-In . SVG Version: 6.00 Build 0)  -->
<svg version="1.1" id="Layer_1" xmlns="http://www.w3.org/2000/svg" xmlns:xlink="http://www.w3.org/1999/xlink" x="0px" y="0px"
	 viewBox="0 0 128 128" style="enable-background:new 0 0 128 128;" xml:space="preserve">
<path d="M35.5,46.3h14.2v14.2c0,2,1.6,3.6,3.6,3.6h14.2c2,0,3.6-1.6,3.6-3.6V46.3h14.2c2,0,3.6-1.6,3.6-3.6V28.5
	c0-2-1.6-3.6-3.6-3.6H71.1V10.7c0-2-1.6-3.6-3.6-3.6H53.3c-2,0-3.6,1.6-3.6,3.6v14.2H35.5c-2,0-3.6,1.6-3.6,3.6v14.2
	C31.9,44.7,33.5,46.3,35.5,46.3z M122.7,76.5c-6.9-5.9-15.4-3.6-19.7-0.4L89.6,86.2h-0.7c0-8.5-6.8-15.1-15.4-15.1h-32
	c-6.3,0-12.4,2.1-17.5,5.8l-6.3,4.8H3.4c-2,0-3.6,1.6-3.6,3.6V89c0,2,1.6,3.6,3.6,3.6h17.8l9.2-7c3.2-2.4,7-3.7,11-3.7h32
	c6.2,0,6.5,8.9-0.2,8.9H59.9c-1.7,0-3.1,1.4-3.1,3.1v0c0,1.7,1.4,3.1,3.1,3.1h29.9c2.2,0,4.3-0.7,6-2l13.6-10.3
	c1.8-1.4,4.6-1.5,6.3,0c1.8,1.5,2.1,4.2,0.6,6c-0.2,0.3-0.5,0.6-0.8,0.8l-22.4,16.8c-1.7,1.3-3.8,2-6,2H3.4c-2,0-3.6,1.6-3.6,3.6
	v3.6c0,2,1.6,3.6,3.6,3.6h83.8c4.4,0,8.7-1.4,12.3-4.1l22.4-16.9c6.6-4.9,8-14.3,3.1-20.9C124.4,78.1,123.6,77.3,122.7,76.5z"/>
</svg>
