<?xml version="1.0" encoding="utf-8"?>
<!-- Generator: Adobe Illustrator 26.3.1, SVG Export Plug-In . SVG Version: 6.00 Build 0)  -->
<svg version="1.1" id="Layer_1" xmlns="http://www.w3.org/2000/svg" xmlns:xlink="http://www.w3.org/1999/xlink" x="0px" y="0px"
	 viewBox="0 0 128 128" style="enable-background:new 0 0 128 128;" xml:space="preserve">
<path d="M51.1,49.4l13.1-12c1.5-1.4,3.4-2.1,5.4-2.1l16.7,0c0.4,0,0.8,0.2,1.1,0.5L99.8,48h25c1.8,0,3.2-1.4,3.2-3.2v-3.2
	c0-1.8-1.4-3.2-3.2-3.2h-21l-9.5-9.5c-2.1-2.1-4.9-3.2-7.9-3.2H41c-3,0-5.8,1.2-7.9,3.3l-9.5,9.5H3.2c-1.8,0-3.2,1.4-3.2,3.2v3.2
	C0,46.6,1.4,48,3.2,48h24.4l12.3-12.3c0.4-0.2,0.7-0.3,1.1-0.5h11.3l-7.7,7.1c-5.9,5.4-6.2,14.5-0.9,20.3c3,3.2,12.2,8.2,20.3,0.9
	l1.6-1.5l21.6,17.6c0.7,0.6,0.8,1.6,0.2,2.3l-5.2,6.4c-0.6,0.7-1.6,0.8-2.3,0.2l-4.8-3.9l-6,7.3c-0.4,0.5-1.1,0.9-1.8,1
	c-0.7,0.1-1.4-0.1-1.8-0.5l-7.4-6.3l-3.1,3.8c-2.8,3.4-7.8,3.9-11.1,1.3L24.7,73.6H3.2c-1.8,0-3.2,1.4-3.2,3.2V80
	c0,1.8,1.4,3.2,3.2,3.2H21l16.9,15.3c6.2,5,14.8,5.1,21.1,0.8c2.5,2.2,5.2,3.2,8.2,3.2c3.6,0,7.1-1.5,9.8-4.8
	c4.4,1.7,9.6,0.5,12.8-3.4l5.2-6.5c1.1-1.4,1.8-3,2.2-4.6h27.6c1.8,0,3.2-1.4,3.2-3.2v-3.2c0-1.8-1.4-3.2-3.2-3.2H95
	c-0.5-0.6-1-1.1-1.5-1.5L72.9,55.4l2.5-2.3c1.3-1.2,1.4-3.2,0.2-4.5l-2.2-2.4c-1.2-1.3-3.2-1.4-4.5-0.2l-11,10.1
	c-1.9,1.7-5.1,1.9-6.9,0C49,54.2,49.2,51.1,51.1,49.4L51.1,49.4z"/>
</svg>
