<?xml version="1.0" encoding="utf-8"?>
<!-- Generator: Adobe Illustrator 26.3.1, SVG Export Plug-In . SVG Version: 6.00 Build 0)  -->
<svg version="1.1" id="Layer_1" xmlns="http://www.w3.org/2000/svg" xmlns:xlink="http://www.w3.org/1999/xlink" x="0px" y="0px"
	 viewBox="0 0 128 128" style="enable-background:new 0 0 128 128;" xml:space="preserve">
<path d="M122.7,76.5c-6.9-5.9-15.4-3.6-19.7-0.4L89.6,86.2h-0.7c0-8.4-6.8-15.1-15.4-15.1h-32c-6.3,0-12.5,2.1-17.5,5.8l-6.3,4.8
	H3.5c-2,0-3.6,1.6-3.6,3.6v3.6c0,2,1.6,3.6,3.6,3.6h17.8l9.2-7c3.1-2.4,7-3.7,11-3.7h32c6.2,0,6.5,8.9-0.2,8.9H59.9
	c-1.7,0-3.1,1.4-3.1,3.1v0c0,1.7,1.4,3.1,3.1,3.1h29.9c2.2,0,4.3-0.7,6-2l13.6-10.3c1.8-1.4,4.6-1.5,6.3,0c2.2,1.9,2.1,5.1-0.2,6.8
	l-22.4,16.8c-1.7,1.3-3.8,2-6,2H3.5c-2,0-3.6,1.6-3.6,3.6v3.6c0,2,1.6,3.6,3.6,3.6h83.8c4.4,0,8.7-1.4,12.3-4.1L122,99.9
	c3.7-2.8,5.9-7,6-11.6C128.1,83.8,126.2,79.5,122.7,76.5L122.7,76.5z M57.2,39.2l11.1,3.2c0.8,0.2,1.4,1,1.4,1.8
	c0,1-0.8,1.9-1.9,1.9h-7.3c-0.8,0-1.6-0.2-2.3-0.5c-1.1-0.5-2.3-0.4-3.1,0.4l-3.9,3.9c-1.2,1.2-1,3.2,0.3,4.1
	c2.1,1.4,4.5,2.2,7.1,2.6v3.9c0,2,1.6,3.6,3.6,3.6h3.6c2,0,3.6-1.6,3.6-3.6v-3.9c6.7-0.8,11.9-6.9,11-14c-0.6-5.1-4.6-9.2-9.5-10.6
	l-11.1-3.2c-0.8-0.2-1.4-1-1.4-1.8c0-1,0.8-1.9,1.9-1.9h7.3c0.8,0,1.6,0.2,2.3,0.5c1.1,0.5,2.3,0.4,3.1-0.4l3.9-3.9
	c1.2-1.2,1-3.2-0.3-4.1c-2.1-1.4-4.5-2.2-7.1-2.6v-3.9c0-2-1.6-3.6-3.6-3.6h-3.6c-2,0-3.6,1.6-3.6,3.6v3.9c-6.7,0.8-11.9,6.9-11,14
	C48.3,33.7,52.3,37.7,57.2,39.2z"/>
</svg>
