<?xml version="1.0" encoding="utf-8"?>
<!-- Generator: Adobe Illustrator 26.3.1, SVG Export Plug-In . SVG Version: 6.00 Build 0)  -->
<svg version="1.1" id="Layer_1" xmlns="http://www.w3.org/2000/svg" xmlns:xlink="http://www.w3.org/1999/xlink" x="0px" y="0px"
	 viewBox="0 0 128 128" style="enable-background:new 0 0 128 128;" xml:space="preserve">
<path d="M96,76.8c10.6,0,19.2-8.6,19.2-19.2S106.6,38.4,96,38.4S76.8,47,76.8,57.6S85.4,76.8,96,76.8z M96,48c5.3,0,9.6,4.3,9.6,9.6
	s-4.3,9.6-9.6,9.6c-5.3,0-9.6-4.3-9.6-9.6C86.4,52.3,90.7,48,96,48z M124.7,89c-3.4-5.1-9.3-7.8-15.4-7.8c-2,0-4,0.3-5.9,0.9
	c-4.8,1.5-10,1.5-14.9,0c-1.9-0.6-3.9-0.9-5.9-0.9c-6,0-11.9,2.7-15.4,7.8c-2.1,3.2-3.3,6.9-3.3,10.7v7.5c0,4.4,3.6,8,8,8h48
	c4.4,0,8-3.6,8-8v-7.5C128,95.9,126.9,92.2,124.7,89L124.7,89z M118.4,105.6H73.6v-5.9c0-1.9,0.6-3.8,1.6-5.3
	c1.5-2.2,4.3-3.6,7.4-3.6c1.1,0,2.1,0.2,3.1,0.5c6.7,2,13.8,2,20.5,0c1-0.3,2.1-0.5,3.1-0.5c3.1,0,5.9,1.3,7.4,3.6
	c1.1,1.6,1.6,3.4,1.6,5.4L118.4,105.6z M29.6,57.6h-8c-1.3,0-2.4,1.1-2.4,2.4v8c0,1.3,1.1,2.4,2.4,2.4h8c1.3,0,2.4-1.1,2.4-2.4v-8
	C32,58.7,30.9,57.6,29.6,57.6z M29.6,76.8h-8c-1.3,0-2.4,1.1-2.4,2.4v8c0,1.3,1.1,2.4,2.4,2.4h8c1.3,0,2.4-1.1,2.4-2.4v-8
	C32,77.9,30.9,76.8,29.6,76.8z M29.6,96h-8c-1.3,0-2.4,1.1-2.4,2.4v8c0,1.3,1.1,2.4,2.4,2.4h8c1.3,0,2.4-1.1,2.4-2.4v-8
	C32,97.1,30.9,96,29.6,96z M48.8,76.8h-8c-1.3,0-2.4,1.1-2.4,2.4v8c0,1.3,1.1,2.4,2.4,2.4h8c1.3,0,2.4-1.1,2.4-2.4v-8
	C51.2,77.9,50.1,76.8,48.8,76.8z M48.8,57.6h-8c-1.3,0-2.4,1.1-2.4,2.4v8c0,1.3,1.1,2.4,2.4,2.4h8c1.3,0,2.4-1.1,2.4-2.4v-8
	C51.2,58.7,50.1,57.6,48.8,57.6z M70.4,78V38.4c0-3.5-2.9-6.4-6.4-6.4h-3.2V19.2c0-3.5-2.9-6.4-6.4-6.4H16c-3.5,0-6.4,2.9-6.4,6.4
	V32H6.4C2.9,32,0,34.9,0,38.4V112c0,1.8,1.4,3.2,3.2,3.2h3.2c1.8,0,3.2-1.4,3.2-3.2V41.6h9.6V22.4h32v19.2h9.6v45.9
	c0.4-0.7,0.7-1.4,1.2-2C64.1,82.3,67,79.8,70.4,78L70.4,78z M48.8,96h-8c-1.3,0-2.4,1.1-2.4,2.4v8c0,1.3,1.1,2.4,2.4,2.4h8
	c1.3,0,2.4-1.1,2.4-2.4v-8C51.2,97.1,50.1,96,48.8,96z M38.4,41.6h5.2c0.7,0,1.2-0.5,1.2-1.2v-4c0-0.7-0.5-1.2-1.2-1.2h-5.2V30
	c0-0.7-0.5-1.2-1.2-1.2h-4c-0.7,0-1.2,0.5-1.2,1.2v5.2h-5.2c-0.7,0-1.2,0.5-1.2,1.2v4c0,0.7,0.5,1.2,1.2,1.2H32v5.2
	c0,0.7,0.5,1.2,1.2,1.2h4c0.7,0,1.2-0.5,1.2-1.2V41.6z"/>
</svg>
