<?xml version="1.0" encoding="utf-8"?>
<!-- Generator: Adobe Illustrator 26.3.1, SVG Export Plug-In . SVG Version: 6.00 Build 0)  -->
<svg version="1.1" id="Layer_1" xmlns="http://www.w3.org/2000/svg" xmlns:xlink="http://www.w3.org/1999/xlink" x="0px" y="0px"
	 viewBox="0 0 128 128" style="enable-background:new 0 0 128 128;" xml:space="preserve">
<path d="M126.8,60.4l-13-11.7V19.6c0-2.9-2.4-5.3-5.3-5.3H87.1c-2.9,0-5.3,2.4-5.3,5.3V20L69.9,9.4c-1.4-1.2-4-2.2-5.9-2.2
	s-4.5,1-5.9,2.2L1.2,60.4c-0.7,0.7-1.1,1.7-1.2,2.7c0,0.9,0.4,1.7,0.9,2.4l2.4,2.7c0.7,0.7,1.7,1.1,2.7,1.2c0.9,0,1.7-0.4,2.4-0.9
	l5.9-5.3V112c0,4.9,4,8.9,8.9,8.9h81.8c4.9,0,8.9-4,8.9-8.9V63.1l5.9,5.3c1.5,1.3,3.7,1.2,5-0.3c0,0,0,0,0,0l2.4-2.7
	c0.5-0.7,0.8-1.5,0.9-2.4C127.9,62.1,127.5,61.2,126.8,60.4z M103.1,110.2H92.4v-3.6c0-11.8-9.6-21.3-21.3-21.3H56.9
	c-11.8,0-21.3,9.6-21.3,21.3v3.6H24.9V53.5L64,18.4l39.1,35.1V110.2z M103.1,39.2l-10.7-9.6v-4.7h10.7V39.2z M49.8,64
	c0,7.9,6.4,14.2,14.2,14.2S78.2,71.9,78.2,64S71.9,49.8,64,49.8S49.8,56.1,49.8,64z"/>
</svg>
