<svg width="70" height="66" viewBox="0 0 70 66" fill="none" xmlns="http://www.w3.org/2000/svg">
<g clip-path="url(#clip0)">
<path d="M25.7272 0H0V33.498C0 61.9156 25.1012 65.8139 25.3526 65.8501L25.7255 65.9028V60.5417H25.7193C22.8116 60.01 5.29689 55.8655 5.29689 33.498V5.29689H25.7272V0Z" fill="#008CCE"/>
<path d="M25.8643 24.3562V11.1815H29.1885C29.61 11.1703 30.0304 11.2291 30.4327 11.3556C30.7545 11.4651 31.0343 11.672 31.2336 11.9474C31.457 12.2767 31.6055 12.6509 31.6686 13.0438C31.7641 13.6011 31.8077 14.166 31.7991 14.7313C31.7991 15.2424 31.7845 15.654 31.7555 15.966C31.737 16.2261 31.6874 16.4831 31.6077 16.7315C31.5537 16.9018 31.4647 17.059 31.3464 17.1929C31.2329 17.3109 31.1041 17.4133 30.9636 17.4974V17.6209C31.1202 17.7137 31.2713 17.8154 31.4163 17.9255C31.5581 18.045 31.6636 18.2018 31.7209 18.3782C31.8118 18.6602 31.8671 18.9525 31.8855 19.2482C31.9204 19.6252 31.9378 20.1445 31.9378 20.806C31.9453 21.371 31.904 21.9356 31.8143 22.4935C31.7569 22.885 31.6144 23.2592 31.397 23.5899C31.2049 23.8644 30.9313 24.0714 30.615 24.1817C30.2216 24.308 29.8097 24.3669 29.3968 24.3558L25.8643 24.3562ZM28.8753 16.8031C29.0045 16.8076 29.1329 16.7808 29.2494 16.7249C29.3576 16.6619 29.4406 16.5635 29.4844 16.4463C29.5528 16.2706 29.5944 16.0857 29.6079 15.8977C29.6309 15.6663 29.6425 15.3626 29.6425 14.9922C29.6472 14.6609 29.6327 14.3295 29.5988 13.9999C29.5842 13.819 29.5371 13.6422 29.4597 13.478C29.4366 13.4278 29.4029 13.3831 29.3609 13.3471C29.3189 13.3111 29.2697 13.2846 29.2165 13.2694C29.0991 13.2442 28.9793 13.2326 28.8592 13.2348H28.0048V16.8023L28.8753 16.8031ZM28.9798 22.2852C29.1081 22.2896 29.2358 22.2659 29.3539 22.2156C29.4611 22.1597 29.5445 22.0671 29.589 21.9547C29.6573 21.7848 29.7013 21.606 29.7194 21.4238C29.7518 21.1319 29.7664 20.8383 29.7631 20.5447C29.7664 20.2012 29.7518 19.8577 29.7194 19.5158C29.7017 19.3024 29.6578 19.092 29.589 18.8893C29.5499 18.7628 29.4664 18.6547 29.3539 18.5848C29.2375 18.5287 29.109 18.5018 28.9798 18.5066H28.0048V22.2831L28.9798 22.2852Z" fill="#33546F"/>
<path d="M33.1558 24.3562V11.1815H38.1164V13.357H35.2967V16.5944H38.0641V18.665H35.2967V22.0761H38.0991V24.3562H33.1558Z" fill="#33546F"/>
<path d="M45.287 19.3091C45.3099 19.4729 45.3245 19.6378 45.3307 19.803C45.3361 19.9715 45.3389 20.2006 45.3389 20.4903C45.3449 21.0959 45.3072 21.7011 45.2261 22.3012C45.1719 22.7494 45.0268 23.1817 44.7997 23.5718C44.5912 23.9082 44.2843 24.1724 43.9206 24.3286C43.4531 24.5133 42.9524 24.5992 42.4501 24.5809C41.8779 24.6068 41.3059 24.5272 40.7627 24.3459C40.3757 24.1859 40.0644 23.8841 39.8926 23.5022C39.79 23.2902 39.7084 23.0687 39.6489 22.8408C39.5647 22.5028 39.5065 22.1588 39.4749 21.8119C39.4282 21.3828 39.3964 20.8374 39.3794 20.1759C39.3624 19.5144 39.3536 18.6733 39.353 17.6526C39.353 16.5625 39.3676 15.6864 39.3967 15.0243C39.4257 14.3622 39.4637 13.8356 39.5107 13.4443C39.5382 13.1431 39.5965 12.8454 39.6848 12.5561C39.7493 12.3719 39.825 12.1919 39.9115 12.017C40.0806 11.6498 40.3768 11.3561 40.7454 11.1901C41.2705 11.0074 41.826 10.9278 42.3814 10.9555C42.8932 10.9349 43.4049 10.9996 43.8955 11.1469C44.2215 11.2575 44.5025 11.4713 44.696 11.756C45.1018 12.3358 45.3049 13.3974 45.3051 14.9408V15.5581C45.3038 15.7066 45.2922 15.8549 45.2706 16.0018H43.2341C43.2452 15.8746 43.2518 15.747 43.2518 15.6194V15.079C43.2546 14.7353 43.237 14.3918 43.1991 14.0501C43.1822 13.8359 43.1354 13.625 43.06 13.4237C43.0115 13.3194 42.9366 13.2294 42.8427 13.1628C42.6996 13.0928 42.5402 13.0628 42.3814 13.0759C42.2105 13.0626 42.0391 13.0956 41.8854 13.1714C41.7739 13.2542 41.6965 13.3748 41.6677 13.5106C41.6302 13.6391 41.6012 13.77 41.5808 13.9024C41.5575 14.0475 41.5372 14.265 41.5199 14.5547C41.5027 14.8444 41.4911 15.2332 41.4854 15.7211C41.4788 16.2084 41.4758 16.8466 41.4763 17.6357C41.4763 18.4363 41.4793 19.0861 41.4854 19.5849C41.4914 20.0837 41.5029 20.4816 41.5199 20.7784C41.5372 21.0742 41.5575 21.3004 41.5808 21.4571C41.6 21.5954 41.629 21.7321 41.6677 21.8662C41.697 22.0042 41.778 22.1257 41.8941 22.2058C42.0688 22.2835 42.2602 22.3163 42.4509 22.3012C42.605 22.3232 42.7617 22.2847 42.8881 22.1939C43.0146 22.1031 43.1011 21.967 43.1296 21.814C43.1921 21.5512 43.23 21.2832 43.2428 21.0134C43.2601 20.7116 43.2688 20.3113 43.2691 19.8125V19.5516C43.2681 19.4701 43.2623 19.3887 43.2518 19.3079L45.287 19.3091Z" fill="#33546F"/>
<path d="M50.873 24.3562C50.5827 23.428 50.3391 22.6361 50.1421 21.9806C49.9451 21.3251 49.7769 20.7739 49.6375 20.327C49.4978 19.8808 49.3904 19.5241 49.3152 19.2569C49.2401 18.9896 49.182 18.7807 49.1411 18.6301C49.1005 18.4794 49.0716 18.372 49.0543 18.3078C49.0384 18.2543 49.0296 18.199 49.028 18.1432H48.8716C48.8827 18.2127 48.8917 18.2884 48.8975 18.3691C48.9033 18.4498 48.9066 18.5523 48.9066 18.6741V24.3562H46.7129V11.1815H48.9061V15.9433C48.9061 16.1121 48.9028 16.2512 48.8971 16.3615C48.8913 16.4718 48.8856 16.5586 48.8798 16.622C48.874 16.6854 48.8712 16.7455 48.8712 16.8052H49.0276C49.0447 16.7138 49.068 16.6237 49.0975 16.5356C49.1321 16.4258 49.2104 16.1908 49.3325 15.8306C49.4546 15.4703 49.6372 14.9279 49.8803 14.2032C50.1245 13.4783 50.4675 12.4718 50.9092 11.1835H53.1543V11.2708L51.0484 17.1879L53.2766 24.2887V24.3583L50.873 24.3562Z" fill="#33546F"/>
<path d="M54.4062 24.3562V11.1815H59.3665V13.357H56.5468V16.5944H59.3142V18.665H56.5468V22.0761H59.3484V24.3562H54.4062Z" fill="#33546F"/>
<path d="M64.6745 24.3562C64.6511 24.2867 64.628 24.2171 64.6045 24.1476C64.5773 24.0593 64.557 23.969 64.5436 23.8776C64.5264 23.7678 64.5091 23.6198 64.4918 23.4335C64.4741 23.2487 64.4482 23.0104 64.4132 22.7203C64.3786 22.3839 64.3468 21.9952 64.3177 21.5543C64.2886 21.1134 64.2393 20.6377 64.1699 20.1274C64.1464 19.8102 64.0636 19.5003 63.9259 19.2137C63.8764 19.1462 63.8105 19.0924 63.7345 19.0573C63.6584 19.0222 63.5748 19.0071 63.4913 19.0133H62.9151V24.3562H60.7749V11.1815H64.1691C64.592 11.1692 65.0136 11.2341 65.4133 11.3729C65.731 11.4903 66.0025 11.7067 66.1879 11.9903C66.3929 12.3278 66.5263 12.704 66.5797 13.0953C66.6611 13.6366 66.6988 14.1835 66.6924 14.7309C66.7004 15.3035 66.6743 15.876 66.6142 16.4455C66.5827 16.7691 66.5095 17.0872 66.3965 17.3921C66.3324 17.5738 66.2183 17.7338 66.0673 17.8535C65.9391 17.9406 65.8053 18.0191 65.6668 18.0885V18.1926C65.8455 18.3268 65.984 18.5075 66.0673 18.7149C66.1759 18.9906 66.2575 19.2762 66.3109 19.5676C66.4022 20.0571 66.469 20.5507 66.5109 21.0468C66.5515 21.5344 66.6064 22.1029 66.6756 22.7524C66.6986 23.0081 66.7218 23.217 66.7451 23.3792C66.7682 23.5438 66.7887 23.678 66.806 23.7883C66.8233 23.8986 66.8406 23.9912 66.8579 24.0669C66.8752 24.1426 66.8958 24.2147 66.9192 24.2842V24.3538L64.6745 24.3562ZM63.6456 17.0818C63.7712 17.0832 63.8966 17.0714 64.0197 17.0464C64.0805 17.03 64.1369 17.0005 64.185 16.9599C64.2331 16.9194 64.2718 16.8688 64.2983 16.8118C64.3924 16.6147 64.4512 16.4027 64.472 16.1854C64.5193 15.784 64.5398 15.3799 64.5333 14.9758C64.5394 14.6591 64.5189 14.3424 64.472 14.0292C64.4498 13.8547 64.3939 13.6863 64.3074 13.5332C64.2515 13.4389 64.161 13.3703 64.0551 13.3418C63.9553 13.3185 63.8531 13.3068 63.7505 13.3069H62.9151V17.0838L63.6456 17.0818Z" fill="#33546F"/>
<path d="M29.763 39.4896C29.7391 39.42 29.7165 39.3505 29.693 39.2809C29.6661 39.1927 29.646 39.1026 29.6329 39.0114C29.6156 38.9016 29.5982 38.7536 29.5806 38.5673C29.5631 38.381 29.537 38.1431 29.5024 37.8536C29.4679 37.5175 29.436 37.1288 29.407 36.6876C29.3779 36.2464 29.3286 35.7708 29.2592 35.2607C29.2356 34.9436 29.1528 34.6337 29.0152 34.347C28.9656 34.2796 28.8996 34.2258 28.8235 34.1908C28.7474 34.1558 28.6636 34.1407 28.5801 34.147H28.0039V39.4896H25.8638V26.3149H29.2584C29.6813 26.3027 30.1029 26.3675 30.5026 26.5063C30.8204 26.6235 31.092 26.84 31.2771 27.1236C31.4819 27.4613 31.6151 27.8374 31.6685 28.2287C31.7502 28.7699 31.788 29.3169 31.7817 29.8642C31.7895 30.4367 31.7634 31.0091 31.7035 31.5784C31.672 31.9036 31.5985 32.2233 31.485 32.5296C31.4209 32.7113 31.3068 32.8713 31.1557 32.9909C31.0277 33.078 30.894 33.1565 30.7557 33.2259V33.3301C30.9343 33.4642 31.0727 33.6449 31.1557 33.8523C31.2646 34.1278 31.3464 34.4133 31.3998 34.7047C31.492 35.2041 31.5586 35.6971 31.5998 36.1839C31.641 36.6706 31.6958 37.2391 31.7644 37.8894C31.7872 38.1454 31.8104 38.3543 31.834 38.5162C31.857 38.6809 31.8776 38.815 31.8949 38.9253C31.9122 39.0356 31.9295 39.1286 31.9468 39.204C31.964 39.2793 31.9846 39.3517 32.0077 39.4213V39.4908L29.763 39.4896ZM28.7341 32.2155C28.8595 32.217 28.9848 32.2051 29.1078 32.1801C29.1685 32.1637 29.225 32.1341 29.2731 32.0935C29.3213 32.0529 29.3599 32.0023 29.3864 31.9451C29.4807 31.7483 29.5396 31.5364 29.5605 31.3191C29.6076 30.9176 29.628 30.5134 29.6214 30.1091C29.6276 29.7924 29.6072 29.4758 29.5605 29.1625C29.5381 28.988 29.4822 28.8195 29.3959 28.6662C29.3396 28.5722 29.2492 28.5036 29.1436 28.4748C29.0435 28.4518 28.9412 28.4402 28.8386 28.4402H28.0031V32.2172L28.7341 32.2155Z" fill="#33546F"/>
<path d="M33.2261 39.4896H35.4189V26.3149H33.2261V39.4896Z" fill="#33546F"/>
<path d="M38.4469 39.4896V28.4904H36.585V26.3149H42.4325V28.49H40.5879V39.4892L38.4469 39.4896Z" fill="#33546F"/>
<path d="M43.3892 39.4896V37.0358L46.748 28.6472L46.6961 28.5081H43.511V26.3149H49.5326V27.4981L45.6865 37.0877L45.7565 37.2112H49.4293V39.4913L43.3892 39.4896Z" fill="#33546F"/>
<path d="M31.7119 54.6234C31.5731 53.3352 31.457 52.2329 31.3637 51.3164C31.2704 50.4 31.1894 49.6285 31.1205 49.0018C31.0505 48.3754 30.9957 47.8678 30.9559 47.479C30.9161 47.0902 30.8867 46.7799 30.8678 46.548C30.8505 46.3159 30.8357 46.1397 30.8242 46.0171C30.8126 45.8944 30.8069 45.7821 30.8069 45.6779H30.6501C30.6501 45.7819 30.6472 45.895 30.6414 46.0171C30.6353 46.1406 30.6209 46.3159 30.6003 46.548C30.5797 46.7801 30.5447 47.0904 30.5044 47.4794C30.464 47.8683 30.4089 48.3754 30.3398 49.0022C30.2706 49.629 30.1858 50.4015 30.0875 51.3168C29.9891 52.2322 29.8697 53.3335 29.7306 54.6238H26.6649L25.5688 41.4487H27.7267C27.8197 42.9226 27.9009 44.1786 27.9703 45.2166C28.0398 46.2546 28.0978 47.1276 28.1444 47.8358C28.1905 48.5437 28.2283 49.1093 28.2576 49.5327C28.286 49.9566 28.3099 50.2929 28.3272 50.5423C28.3445 50.7917 28.356 50.9773 28.3622 51.0987C28.3683 51.2201 28.3704 51.3337 28.3704 51.4387H28.5272C28.5272 51.3337 28.533 51.2209 28.5445 51.0987C28.556 50.9765 28.5766 50.7921 28.6054 50.5423C28.6342 50.2925 28.6754 49.9566 28.7289 49.5327C28.7824 49.1088 28.8523 48.5449 28.9379 47.8358C29.0236 47.1267 29.1293 46.2558 29.2512 45.2166C29.373 44.1774 29.5207 42.9225 29.6948 41.4487H31.835C32.0087 42.9226 32.1596 44.1786 32.2877 45.2166C32.4158 46.2546 32.5231 47.1276 32.6096 47.8358C32.6968 48.5437 32.7636 49.1123 32.81 49.5418C32.8564 49.9712 32.8939 50.3075 32.9228 50.5509C32.9502 50.7946 32.9676 50.9802 32.975 51.1078C32.9808 51.2358 32.9841 51.3457 32.9841 51.437H33.1578C33.1578 51.344 33.1606 51.2341 33.1668 51.1078C33.173 50.9814 33.1841 50.7946 33.2014 50.5509C33.2187 50.3073 33.2425 49.971 33.2709 49.5418C33.2993 49.1125 33.3376 48.5437 33.3841 47.8358C33.4306 47.1279 33.4887 46.2558 33.5582 45.2166C33.6278 44.1774 33.7089 42.9225 33.8019 41.4487H35.8383L34.7579 54.6234H31.7119Z" fill="#33546F"/>
<path d="M37.0371 54.6234V41.4487H39.1773V52.3433H41.7533V54.6234H37.0371Z" fill="#33546F"/>
<path d="M46.5919 54.6234L46.331 51.3164H44.9728L44.7114 54.6234H42.5713L43.9295 41.4487H47.5311L48.8024 54.6234H46.5919ZM45.7391 43.6069H45.5823L45.06 49.2281H46.2437L45.7391 43.6069Z" fill="#33546F"/>
<path d="M53.1878 45.5388C53.1994 45.4458 53.2081 45.3384 53.2142 45.2166C53.2199 45.0952 53.2228 44.9285 53.2228 44.7227C53.2448 44.3539 53.1944 43.9844 53.0747 43.6349C52.9759 43.4206 52.741 43.3132 52.3701 43.3127C52.2352 43.3096 52.1006 43.3242 51.9696 43.3563C51.8624 43.3874 51.7718 43.4594 51.7173 43.5567C51.6441 43.6911 51.5997 43.8393 51.5868 43.9917C51.5603 44.2402 51.5486 44.4901 51.5519 44.74C51.5519 45.0185 51.5547 45.2389 51.5605 45.4014C51.5634 45.5357 51.578 45.6696 51.6041 45.8014C51.6213 45.8919 51.6569 45.9779 51.7087 46.0541C51.7699 46.1341 51.8399 46.207 51.9173 46.2714C52.0771 46.4021 52.2459 46.5215 52.4223 46.6287C52.6191 46.7501 52.8281 46.8665 53.0487 46.9764C53.2693 47.0863 53.4809 47.197 53.6838 47.3057C53.8867 47.4143 54.0583 47.5172 54.197 47.6098C54.3829 47.7301 54.5552 47.8703 54.7106 48.028C54.8552 48.186 54.9649 48.3726 55.0325 48.5758C55.1251 48.8634 55.1805 49.1618 55.1971 49.4635C55.2259 49.829 55.2405 50.3077 55.2407 50.8995C55.2522 51.5668 55.2026 52.2337 55.0926 52.8919C55.0274 53.3278 54.8605 53.7422 54.6053 54.1015C54.3795 54.3916 54.0647 54.5995 53.7093 54.6933C53.2543 54.8077 52.786 54.8603 52.317 54.8497C51.9016 54.8578 51.4868 54.814 51.0823 54.7193C50.762 54.6422 50.4715 54.4728 50.2468 54.232C50.0034 53.9487 49.8382 53.6068 49.7677 53.2401C49.6575 52.6932 49.608 52.1359 49.62 51.5782C49.6188 51.3225 49.6305 51.0668 49.6549 50.8123C49.6732 50.6137 49.7021 50.4163 49.7418 50.2208H51.5346C51.5095 50.3288 51.4978 50.4393 51.4996 50.5501V50.9851C51.4958 51.2758 51.5104 51.5664 51.5432 51.8552C51.5601 52.033 51.6072 52.2067 51.6823 52.3688C51.735 52.4803 51.8284 52.5673 51.9433 52.612C52.075 52.6564 52.2134 52.6772 52.3524 52.6734C52.4992 52.6767 52.6459 52.6591 52.7878 52.6211C52.8473 52.6021 52.9025 52.5716 52.9503 52.5313C52.998 52.4909 53.0373 52.4416 53.066 52.3861C53.149 52.2172 53.1993 52.0341 53.2142 51.8465C53.2466 51.5198 53.2603 51.1916 53.2553 50.8633C53.2553 50.6196 53.2525 50.4258 53.2467 50.2805C53.244 50.1569 53.2264 50.0341 53.1944 49.9146C53.1687 49.8238 53.1269 49.7383 53.071 49.6623C53.0187 49.5928 52.952 49.5121 52.8709 49.4187C52.6998 49.2524 52.5101 49.1064 52.3054 48.9837C52.0791 48.844 51.8441 48.7107 51.6004 48.5836C51.3568 48.4566 51.119 48.3231 50.8872 48.1832C50.6754 48.059 50.477 47.9132 50.2953 47.7481C50.1636 47.6293 50.0467 47.495 49.9472 47.3481C49.8415 47.177 49.7677 46.9882 49.7294 46.7908C49.6695 46.4924 49.6346 46.1896 49.6253 45.8854C49.608 45.5141 49.5992 45.0268 49.599 44.4235C49.589 43.9007 49.6357 43.3784 49.7381 42.8657C49.8068 42.5044 49.9655 42.1662 50.1994 41.8825C50.4268 41.631 50.7235 41.4524 51.0522 41.3692C51.4817 41.2617 51.9237 41.2118 52.3664 41.2211C52.8205 41.2107 53.274 41.2605 53.7151 41.3692C54.0348 41.4475 54.325 41.6168 54.5505 41.8565C54.7663 42.11 54.9105 42.4165 54.9683 42.7443C55.0505 43.189 55.0884 43.6408 55.0815 44.093C55.0815 44.4642 55.0727 44.7571 55.0551 44.9717C55.0418 45.163 55.0097 45.3526 54.9592 45.5376L53.1878 45.5388Z" fill="#33546F"/>
<path d="M60.062 54.6234L59.8011 51.3164H58.4425L58.1812 54.6234H56.041L57.3992 41.4487H61.0017L62.2722 54.6234H60.062ZM59.2093 43.6069H59.0525L58.5306 49.2281H59.7139L59.2093 43.6069Z" fill="#33546F"/>
<path d="M67.5982 54.6234C67.3079 53.6952 67.0643 52.9032 66.8673 52.2474C66.6702 51.5916 66.5021 51.0406 66.3627 50.5941C66.2233 50.148 66.1159 49.7913 66.0404 49.5241C65.965 49.2568 65.9069 49.0479 65.8663 48.8972C65.8252 48.7466 65.7968 48.6388 65.7795 48.575C65.7636 48.5215 65.7547 48.4661 65.7531 48.4104H65.5967C65.6083 48.4799 65.6169 48.5556 65.6227 48.6363C65.6284 48.717 65.6317 48.819 65.6317 48.9413V54.6234H63.4385V41.4487H65.6317V46.2089C65.6317 46.3772 65.6284 46.5167 65.6227 46.6266C65.6169 46.7365 65.6111 46.8238 65.6054 46.8871C65.5996 46.9505 65.5967 47.0106 65.5967 47.0703H65.7531C65.7703 46.9788 65.7937 46.8886 65.8231 46.8003C65.8577 46.6905 65.936 46.4558 66.0581 46.0961C66.1802 45.7364 66.3628 45.1938 66.6059 44.4684C66.8501 43.7434 67.1924 42.7369 67.6328 41.4487H69.8783V41.5359L67.7723 47.453L70.0001 54.5538V54.6234H67.5982Z" fill="#33546F"/>
</g>
<defs>
<clipPath id="clip0">
<rect width="70" height="65.9028" fill="white"/>
</clipPath>
</defs>
</svg>
