<?xml version="1.0" encoding="utf-8"?>
<!-- Generator: Adobe Illustrator 26.3.1, SVG Export Plug-In . SVG Version: 6.00 Build 0)  -->
<svg version="1.1" id="Layer_1" xmlns="http://www.w3.org/2000/svg" xmlns:xlink="http://www.w3.org/1999/xlink" x="0px" y="0px"
	 viewBox="0 0 128 128" style="enable-background:new 0 0 128 128;" xml:space="preserve">
<path d="M85.5,70.4l-13.1-1.9l-5.9-11.9C66.1,55.6,65,55,64,55c-1,0-2,0.5-2.6,1.6l-5.9,11.9l-13.1,1.9c-2.4,0.3-3.3,3.2-1.6,4.9
	l9.5,9.2l-2.2,13.1c-0.3,1.9,1.2,3.4,2.8,3.4c0.4,0,0.9-0.1,1.3-0.3L64,94.5l11.7,6.2c0.4,0.2,0.9,0.3,1.3,0.3
	c1.7,0,3.2-1.5,2.8-3.4l-2.2-13.1l9.5-9.2C88.8,73.7,87.9,70.8,85.5,70.4z M124,0H84.5c-2.8,0-5.4,1.5-6.9,3.9L64,26.7L50.3,3.9
	c-1.4-2.4-4-3.9-6.9-3.9H4C0.8,0-1.1,3.6,0.7,6.3L29.2,47C21.1,55.6,16,67.2,16,80c0,26.5,21.5,48,48,48s48-21.5,48-48
	c0-12.8-5.1-24.4-13.2-33l28.5-40.7C129.1,3.6,127.2,0,124,0z M19.4,12h21.8l12.7,21.1c-5.5,1.2-10.7,3.4-15.3,6.3L19.4,12z M100,80
	c0,19.9-16.1,36-36,36S28,99.9,28,80s16.1-36,36-36S100,60.1,100,80z M89.5,39.4c-4.6-2.9-9.8-5.1-15.3-6.3L86.8,12h21.8L89.5,39.4
	L89.5,39.4z"/>
</svg>
