<?xml version="1.0" encoding="utf-8"?>
<!-- Generator: Adobe Illustrator 26.3.1, SVG Export Plug-In . SVG Version: 6.00 Build 0)  -->
<svg version="1.1" id="Layer_1" xmlns="http://www.w3.org/2000/svg" xmlns:xlink="http://www.w3.org/1999/xlink" x="0px" y="0px"
	 viewBox="0 0 128 128" style="enable-background:new 0 0 128 128;" xml:space="preserve">
<path d="M97.1,89.6h8.5c1.8,0,3.2-1.4,3.2-3.2v-8.5c0-1.7-0.7-3.3-1.9-4.5L60.6,27.1L46.3,41.4l46.3,46.3
	C93.8,88.9,95.4,89.6,97.1,89.6z M41.8,36.9l14.3-14.4l-8.4-8.4c-1.9-1.9-4.9-1.9-6.8,0l-7.6,7.6c-1.9,1.9-1.9,4.9,0,6.8L41.8,36.9z
	 M27.2,97.6h3.2c0.9,0,1.6-0.7,1.6-1.6v-3.2c4.7-0.1,8.5-4.1,8.5-9c0-4-2.6-7.6-6.3-8.7l-9-2.7c-1-0.3-1.8-1.4-1.8-2.5
	c0-1.5,1.1-2.6,2.4-2.6h5.6c0.9,0,1.8,0.3,2.6,0.7c0.3,0.2,0.6,0.3,1,0.3c0.4,0,0.8-0.1,1.1-0.4l2.3-2.2c0.6-0.6,0.7-1.6,0.1-2.3
	c-0.1-0.1-0.1-0.1-0.2-0.2c-1.8-1.4-4-2.2-6.3-2.3v-3.3c0-0.9-0.7-1.6-1.6-1.6h-3.2c-0.9,0-1.6,0.7-1.6,1.6v3.2
	c-4.7,0.1-8.5,4.1-8.5,9c0,4,2.6,7.6,6.3,8.7l9,2.7c1,0.3,1.8,1.4,1.8,2.5c0,1.5-1.1,2.6-2.4,2.6h-5.6c-0.9,0-1.8-0.3-2.6-0.7
	c-0.3-0.2-0.6-0.3-1-0.3c-0.4,0-0.8,0.1-1.1,0.4l-2.4,2.2c-0.6,0.6-0.7,1.6-0.1,2.3c0.1,0.1,0.1,0.1,0.2,0.2c1.8,1.4,4,2.2,6.3,2.3
	V96C25.6,96.9,26.3,97.6,27.2,97.6z M51.2,73.6h18.2L59.8,64h-8.6c-1.8,0-3.2,1.4-3.2,3.2v3.2C48,72.2,49.4,73.6,51.2,73.6z
	 M48,86.4c0,1.8,1.4,3.2,3.2,3.2h34.2L75.8,80H51.2c-1.8,0-3.2,1.4-3.2,3.2V86.4z M121.6,38.4H81l9.6,9.6h27.8v57.6H9.6V48h34.2
	l-2-2l-4.5-4.5l-3-3H6.4c-3.5,0-6.4,2.9-6.4,6.4v64c0,3.5,2.9,6.4,6.4,6.4h115.2c3.5,0,6.4-2.9,6.4-6.4v-64
	C128,41.3,125.1,38.4,121.6,38.4z"/>
</svg>
