<?xml version="1.0" encoding="utf-8"?>
<!-- Generator: Adobe Illustrator 26.3.1, SVG Export Plug-In . SVG Version: 6.00 Build 0)  -->
<svg version="1.1" id="Layer_1" xmlns="http://www.w3.org/2000/svg" xmlns:xlink="http://www.w3.org/1999/xlink" x="0px" y="0px"
	 viewBox="0 0 128 128" style="enable-background:new 0 0 128 128;" xml:space="preserve">
<path d="M128,65.6v-3.2c0-1.8-1.4-3.2-3.2-3.2h-56v-8h14.4c3.5,0,6.4-2.9,6.4-6.4V19.2c0-3.5-2.9-6.4-6.4-6.4H44.8
	c-3.5,0-6.4,2.9-6.4,6.4v25.6c0,3.5,2.9,6.4,6.4,6.4h14.4v8h-56c-1.8,0-3.2,1.4-3.2,3.2v3.2c0,1.8,1.4,3.2,3.2,3.2H24v8H12.8
	c-3.5,0-6.4,2.9-6.4,6.4v25.6c0,3.5,2.9,6.4,6.4,6.4h32c3.5,0,6.4-2.9,6.4-6.4V83.2c0-3.5-2.9-6.4-6.4-6.4H33.6v-8h60.8v8H83.2
	c-3.5,0-6.4,2.9-6.4,6.4v25.6c0,3.5,2.9,6.4,6.4,6.4h32c3.5,0,6.4-2.9,6.4-6.4V83.2c0-3.5-2.9-6.4-6.4-6.4H104v-8h20.8
	C126.6,68.8,128,67.4,128,65.6z M51.2,38.4V25.6h25.6v12.8H51.2z M38.4,102.4H19.2V89.6h19.2V102.4z M108.8,102.4H89.6V89.6h19.2
	V102.4z"/>
</svg>
