<?xml version="1.0" encoding="utf-8"?>
<!-- Generator: Adobe Illustrator 26.3.1, SVG Export Plug-In . SVG Version: 6.00 Build 0)  -->
<svg version="1.1" id="Layer_1" xmlns="http://www.w3.org/2000/svg" xmlns:xlink="http://www.w3.org/1999/xlink" x="0px" y="0px"
	 viewBox="0 0 128 128" style="enable-background:new 0 0 128 128;" xml:space="preserve">
<path d="M36.4,36.4c8.3-8.3,8.3-21.8,0-30.2s-21.8-8.3-30.2,0s-8.3,21.8,0,30.2C14.6,44.7,28.1,44.7,36.4,36.4z M121.7,91.6
	c-8.3-8.3-21.8-8.3-30.2,0s-8.3,21.8,0,30.2c8.3,8.3,21.8,8.3,30.2,0C130.1,113.4,130.1,99.9,121.7,91.6z M121.1,14.4l-7.5-7.5
	c-4.2-4.2-10.9-4.2-15.1,0L6.9,98.5c-4.2,4.2-4.2,10.9,0,15.1l7.5,7.5c4.2,4.2,10.9,4.2,15.1,0l91.6-91.6
	C125.3,25.4,125.3,18.6,121.1,14.4z"/>
</svg>
