<?xml version="1.0" encoding="utf-8"?>
<!-- Generator: Adobe Illustrator 26.3.1, SVG Export Plug-In . SVG Version: 6.00 Build 0)  -->
<svg version="1.1" id="Layer_1" xmlns="http://www.w3.org/2000/svg" xmlns:xlink="http://www.w3.org/1999/xlink" x="0px" y="0px"
	 viewBox="0 0 128 128" style="enable-background:new 0 0 128 128;" xml:space="preserve">
<path d="M98.5,79.1l-16-6.9c-0.4-0.2-0.9-0.3-1.4-0.3c-1,0.1-2,0.5-2.7,1.3l-7.1,8.7c-11.1-5.2-20.1-14.2-25.3-25.3l8.7-7.1
	c0.7-0.7,1.2-1.6,1.3-2.7c0-0.5-0.1-0.9-0.3-1.4l-6.9-16c-0.6-1.2-1.8-2-3.1-2.1c-0.3,0-0.5,0-0.8,0.1l-14.9,3.4
	c-1.5,0.4-2.6,1.8-2.7,3.3c0,36.6,29.7,66.3,66.3,66.3c1.6-0.1,2.9-1.1,3.3-2.7l3.4-14.9c0.1-0.3,0.1-0.5,0.1-0.8
	C100.5,80.9,99.7,79.7,98.5,79.1z M114.3,0H13.7C6.1,0,0,6.1,0,13.7v100.6c0,7.6,6.1,13.7,13.7,13.7h100.6c7.6,0,13.7-6.1,13.7-13.7
	V13.7C128,6.1,121.9,0,114.3,0z M114.3,112.6c0,0.9-0.8,1.7-1.7,1.7H15.4c-0.9,0-1.7-0.8-1.7-1.7V15.4c0-0.9,0.8-1.7,1.7-1.7h97.1
	c0.9,0,1.7,0.8,1.7,1.7V112.6z"/>
</svg>
