<?xml version="1.0" encoding="utf-8"?>
<!-- Generator: Adobe Illustrator 26.3.1, SVG Export Plug-In . SVG Version: 6.00 Build 0)  -->
<svg version="1.1" id="Layer_1" xmlns="http://www.w3.org/2000/svg" xmlns:xlink="http://www.w3.org/1999/xlink" x="0px" y="0px"
	 viewBox="0 0 128 128" style="enable-background:new 0 0 128 128;" xml:space="preserve">
<path d="M124.4,56.9h-6.6c-2.5-5.6-6.4-10.4-11.2-14.1V28.4h-3.6c-6.7,0-12.8,2.2-18,5.8c0.1-0.8,0.2-1.5,0.2-2.3
	c0-13.8-11.1-24.9-24.9-24.9S35.6,18.3,35.6,32c0,2.2,0.3,4.2,0.8,6.2c-10.9,4.4-19.1,14-21.5,25.8h-2.5c-3.3,0-5.9-3-5.2-6.4
	c0.5-2.5,2.9-4.3,5.4-4.3h0.2c0.7,0,1.3-0.6,1.3-1.3v-4.4c0-0.7-0.6-1.3-1.3-1.3c-6.3,0-12,4.5-12.8,10.8c-1,7.6,4.9,14.1,12.3,14.1
	h1.8c0,11.6,5.6,21.8,14.2,28.3v17.9c0,2,1.6,3.6,3.6,3.6h24.9c2,0,3.6-1.6,3.6-3.6v-10.7h14.2v10.7c0,2,1.6,3.6,3.6,3.6h24.9
	c2,0,3.6-1.6,3.6-3.6v-18c2.6-2,5-4.3,7-6.9h10.8c2,0,3.6-1.6,3.6-3.6V60.4C128,58.5,126.4,56.9,124.4,56.9z M60.5,17.8
	c7.8,0,14.2,6.4,14.2,14.2c0,1.2-0.2,2.4-0.5,3.6H49.8c-1,0-2,0.2-3,0.3c-0.4-1.2-0.6-2.5-0.6-3.8C46.2,24.2,52.6,17.8,60.5,17.8z
	 M117.3,81.8h-9C103.1,88.7,104,88,96,94.1v16.1H85.3V96H49.8v14.2H39.1V94.1c-3.2-2.4-14.2-8.8-14.2-23c0-13.7,11.2-24.9,24.9-24.9
	H87c2.1-1.7,4.9-4.3,9-5.8v7.7c10.1,7.6,9.8,7.8,14.9,19.4h6.4V81.8z M96,64c-2,0-3.6,1.6-3.6,3.6s1.6,3.6,3.6,3.6
	c2,0,3.6-1.6,3.6-3.6S98,64,96,64z"/>
</svg>
