<?xml version="1.0" encoding="utf-8"?>
<!-- Generator: Adobe Illustrator 26.3.1, SVG Export Plug-In . SVG Version: 6.00 Build 0)  -->
<svg version="1.1" id="Layer_1" xmlns="http://www.w3.org/2000/svg" xmlns:xlink="http://www.w3.org/1999/xlink" x="0px" y="0px"
	 viewBox="0 0 128 128" style="enable-background:new 0 0 128 128;" xml:space="preserve">
<path d="M81.5,29L95.3,8.7c1.5-3,0.3-6.6-2.7-8C91.8,0.2,90.9,0,90,0H38c-3.3,0-6,2.7-6,6c0,0.9,0.2,1.8,0.6,2.7L46.5,29
	C-2.5,58.9,0,98,0,103c0,13.8,12.3,25,27.4,25h73.1c15.1,0,27.4-11.2,27.4-25C128,98.1,130.2,58.7,81.5,29z M78.6,12L69,26H59
	l-9.6-14H78.6z M116,103c0,7.2-6.9,13-15.4,13H27.4c-8.5,0-15.4-5.8-15.4-13c-0.2-20.3,8.2-43.9,42.7-65h18.5
	C107.7,59,116.2,82.7,116,103z M71.4,77.7l-12.3-3.6c-1.4-0.4-2.4-1.8-2.4-3.4c0-2,1.4-3.6,3.2-3.6h7.6c1.2,0,2.4,0.4,3.5,1
	c0.9,0.6,2,0.5,2.8-0.2l3.2-3c0.9-0.8,0.9-2.2,0.1-3c-0.1-0.1-0.2-0.2-0.3-0.2c-2.5-1.8-5.5-2.9-8.5-3v-4.4c0-1.2-1-2.2-2.2-2.2
	h-4.4c-1.2,0-2.2,1-2.2,2.2v4.4C53.2,58.7,48,64.1,48,70.7c0,5.4,3.5,10.2,8.6,11.7L68.8,86c1.4,0.4,2.4,1.8,2.4,3.4
	c0,2-1.4,3.6-3.2,3.6h-7.7c-1.2,0-2.4-0.4-3.5-1c-0.9-0.6-2-0.5-2.8,0.2l-3.2,3c-0.9,0.8-0.9,2.2-0.1,3c0.1,0.1,0.2,0.2,0.3,0.2
	c2.5,1.8,5.5,2.9,8.5,3v4.4c0,1.2,1,2.2,2.2,2.2h4.4c1.2,0,2.2-1,2.2-2.2v-4.3C74.8,101.3,80,96,80,89.4C80,84,76.5,79.2,71.4,77.7
	L71.4,77.7z"/>
</svg>
