<?xml version="1.0" encoding="utf-8"?>
<!-- Generator: Adobe Illustrator 26.3.1, SVG Export Plug-In . SVG Version: 6.00 Build 0)  -->
<svg version="1.1" id="Layer_1" xmlns="http://www.w3.org/2000/svg" xmlns:xlink="http://www.w3.org/1999/xlink" x="0px" y="0px"
	 viewBox="0 0 128 128" style="enable-background:new 0 0 128 128;" xml:space="preserve">
<path d="M64,0C28.6,0,0,28.6,0,64s28.6,64,64,64s64-28.6,64-64S99.4,0,64,0z M64,115.6c-28.5,0-51.6-23.1-51.6-51.6
	S35.5,12.4,64,12.4s51.6,23.1,51.6,51.6S92.5,115.6,64,115.6z M43.4,59.9c4.6,0,8.3-3.7,8.3-8.3s-3.7-8.3-8.3-8.3s-8.3,3.7-8.3,8.3
	S38.8,59.9,43.4,59.9z M84.6,59.9c4.6,0,8.3-3.7,8.3-8.3s-3.7-8.3-8.3-8.3c-4.6,0-8.3,3.7-8.3,8.3S80.1,59.9,84.6,59.9z M85.7,78.6
	C80.3,85.1,72.4,88.8,64,88.8s-16.3-3.7-21.7-10.2c-2.2-2.6-6.1-3-8.7-0.8c-2.6,2.2-3,6.1-0.8,8.7c7.7,9.3,19.1,14.6,31.2,14.6
	s23.5-5.3,31.2-14.6c2.2-2.6,1.8-6.5-0.8-8.7C91.8,75.6,87.9,76,85.7,78.6z"/>
</svg>
