<?xml version="1.0" encoding="utf-8"?>
<!-- Generator: Adobe Illustrator 26.3.1, SVG Export Plug-In . SVG Version: 6.00 Build 0)  -->
<svg version="1.1" id="Layer_1" xmlns="http://www.w3.org/2000/svg" xmlns:xlink="http://www.w3.org/1999/xlink" x="0px" y="0px"
	 viewBox="0 0 128 128" style="enable-background:new 0 0 128 128;" xml:space="preserve">
<path d="M28.4,71.1c-3.9,0-7.1,3.2-7.1,7.1c0,3.9,3.2,7.1,7.1,7.1s7.1-3.2,7.1-7.1C35.6,74.3,32.4,71.1,28.4,71.1z M62.8,49.5
	l3.6-10.8c0.3-0.8,0.7-1.4,1.1-2.1c-1.1-0.6-2.2-1.1-3.5-1.1c-3.9,0-7.1,3.2-7.1,7.1C56.9,46.2,59.5,49,62.8,49.5z M39.1,46.2
	c-3.9,0-7.1,3.2-7.1,7.1s3.2,7.1,7.1,7.1s7.1-3.2,7.1-7.1S43,46.2,39.1,46.2z M64,14.2c-35.3,0-64,28.7-64,64
	c0,11.7,3.2,22.7,8.7,32.2c1.2,2.1,3.6,3.4,6.1,3.4h98.4c2.5,0,4.9-1.2,6.1-3.4c5.5-9.5,8.7-20.4,8.7-32.2
	C128,42.9,99.3,14.2,64,14.2z M111.2,103.1H16.8c-4-7.6-6.2-16.2-6.2-24.9c0-29.4,23.9-53.3,53.3-53.3s53.3,23.9,53.3,53.3
	C117.3,86.9,115.2,95.5,111.2,103.1L111.2,103.1z M92.4,78.2c0,3.9,3.2,7.1,7.1,7.1c3.9,0,7.1-3.2,7.1-7.1c0-3.9-3.2-7.1-7.1-7.1
	C95.6,71.1,92.4,74.3,92.4,78.2z M79.9,37.6c-2.8-0.9-5.8,0.6-6.8,3.4L63.1,71.2c-7.4,0.5-13.3,6.6-13.3,14.1c0,2.6,0.8,5,2,7.1
	h24.5c1.2-2.1,2-4.5,2-7.1c0-4.3-2-8.1-5-10.8l10.1-30.2C84.2,41.6,82.7,38.5,79.9,37.6L79.9,37.6z M96,53.3c0-3.5-2.6-6.3-5.9-6.9
	c0,0,0,0.1,0,0.1l-4.3,13c1,0.5,2,0.8,3.2,0.8C92.8,60.4,96,57.3,96,53.3L96,53.3z"/>
</svg>
