<?xml version="1.0" encoding="utf-8"?>
<!-- Generator: Adobe Illustrator 26.3.1, SVG Export Plug-In . SVG Version: 6.00 Build 0)  -->
<svg version="1.1" id="Layer_1" xmlns="http://www.w3.org/2000/svg" xmlns:xlink="http://www.w3.org/1999/xlink" x="0px" y="0px"
	 viewBox="0 0 128 128" style="enable-background:new 0 0 128 128;" xml:space="preserve">
<path d="M88.7,16.4C82,14,75.1,12.8,68.3,12.8c-18.1,0-35.4,8.3-46.7,22.5c-1.3,1.7-0.5,4.2,1.5,4.9l45.8,16.7L51,105.6H3.2
	c-1.8,0-3.2,1.4-3.2,3.2v3.2c0,1.8,1.4,3.2,3.2,3.2H112c1.8,0,3.2-1.4,3.2-3.2v-3.2c0-1.8-1.4-3.2-3.2-3.2H61.2l16.7-45.4l45.7,16.6
	c0.4,0.1,0.7,0.2,1.1,0.2c1.7,0,3.2-1.3,3.2-3C128.6,49.1,113.4,25.4,88.7,16.4L88.7,16.4z M90.5,54.5L61.5,44
	c2.9-5.1,6.1-9.5,9.6-12.8c5.1-4.8,10-6.8,13.5-5.6c3.5,1.3,6,6,6.8,12.9C91.9,43.4,91.6,48.8,90.5,54.5L90.5,54.5z M35.6,34.5
	c8.6-7.3,19.6-11.6,30.9-12.1c-0.9,0.8-7.4,5.7-14.1,18.2L35.6,34.5L35.6,34.5z M99.6,57.8c1.5-7,2.4-15.4,0.8-23.7
	c9.2,7.7,15.4,18.3,17.4,30.3L99.6,57.8L99.6,57.8z"/>
</svg>
