<?xml version="1.0" encoding="utf-8"?>
<!-- Generator: Adobe Illustrator 26.3.1, SVG Export Plug-In . SVG Version: 6.00 Build 0)  -->
<svg version="1.1" id="Layer_1" xmlns="http://www.w3.org/2000/svg" xmlns:xlink="http://www.w3.org/1999/xlink" x="0px" y="0px"
	 viewBox="0 0 128 128" style="enable-background:new 0 0 128 128;" xml:space="preserve">
<path d="M121.6,113.1h-2.1V98.1c0-3.5-2.9-6.4-6.4-6.4h-4.3V51.2H96v40.5H83.2V51.2H70.4v40.5H57.6V51.2H44.8v40.5H32V51.2H19.2
	v40.5h-4.3c-3.5,0-6.4,2.9-6.4,6.4v14.9H6.4c-3.5,0-6.4,2.9-6.4,6.4v4.3c0,1.2,1,2.1,2.1,2.1h123.7c1.2,0,2.1-1,2.1-2.1v-4.3
	C128,115.9,125.1,113.1,121.6,113.1z M106.7,113.1H21.3v-8.5h85.3V113.1z M125.9,26.9L68,2.8c-2.6-0.9-5.5-0.9-8.1,0L2.1,26.9
	c-1.2,0.5-2.1,1.7-2.1,3v7.4c0,1.8,1.4,3.2,3.2,3.2h5.3v3.2c0,1.8,1.4,3.2,3.2,3.2h104.5c1.8,0,3.2-1.4,3.2-3.2v-3.2h5.3
	c1.8,0,3.2-1.4,3.2-3.2v-7.4C128,28.6,127.2,27.4,125.9,26.9L125.9,26.9z M12.8,34.1L64,14.9l51.2,19.2H12.8z"/>
</svg>
