<?xml version="1.0" encoding="utf-8"?>
<!-- Generator: Adobe Illustrator 26.3.1, SVG Export Plug-In . SVG Version: 6.00 Build 0)  -->
<svg version="1.1" id="Layer_1" xmlns="http://www.w3.org/2000/svg" xmlns:xlink="http://www.w3.org/1999/xlink" x="0px" y="0px"
	 viewBox="0 0 128 128" style="enable-background:new 0 0 128 128;" xml:space="preserve">
<path d="M96,64c10.6,0,19.2-8.6,19.2-19.2S106.6,25.6,96,25.6s-19.2,8.6-19.2,19.2S85.4,64,96,64z M96,35.2c5.3,0,9.6,4.3,9.6,9.6
	s-4.3,9.6-9.6,9.6s-9.6-4.3-9.6-9.6S90.7,35.2,96,35.2z M54.4,68c-2.4,0-4.8,0.3-7.1,1.1c-2.8,0.9-5.8,1.3-8.9,1.3s-6.1-0.5-8.9-1.3
	c-2.3-0.7-4.7-1.1-7.1-1.1C15.1,68,8,71.2,3.9,77.4C1.4,81.1,0,85.5,0,90.2v9c0,5.3,4.3,9.6,9.6,9.6h57.6c5.3,0,9.6-4.3,9.6-9.6v-9
	c0-4.8-1.4-9.2-3.9-12.9C68.7,71.2,61.7,68,54.4,68L54.4,68z M67.2,99.2H9.6v-9c0-5.8,3.7-10.7,8.8-12.6c2.1-0.8,4.3-0.7,6.4,0
	c4.4,1.6,9,2.4,13.6,2.4s9.2-0.8,13.6-2.4c2.1-0.7,4.3-0.8,6.4,0c5.1,1.9,8.8,6.8,8.8,12.6L67.2,99.2L67.2,99.2z M38.4,64
	c12.4,0,22.4-10,22.4-22.4s-10-22.4-22.4-22.4S16,29.2,16,41.6S26,64,38.4,64z M38.4,28.8c7.1,0,12.8,5.7,12.8,12.8
	s-5.7,12.8-12.8,12.8s-12.8-5.7-12.8-12.8S31.3,28.8,38.4,28.8z M124.7,76.2c-3.5-5.1-9.3-7.8-15.4-7.8c-5.6,0-7,2-13.4,2
	s-7.8-2-13.4-2C80,68.4,77.4,69,75,70c1.2,1.2,2.3,2.4,3.2,3.8c0.9,1.4,1.7,2.9,2.4,4.4c0.7-0.1,1.3-0.2,2-0.2c3.4,0,5.9,2,13.4,2
	c7.5,0,9.9-2,13.4-2c3.1,0,5.9,1.3,7.4,3.6c1.1,1.6,1.6,3.4,1.6,5.3v5.9H83.2v6.4c0,1.1-0.1,2.2-0.3,3.2H120c4.4,0,8-3.6,8-8v-7.5
	C128,83,126.8,79.3,124.7,76.2z"/>
</svg>
