<?xml version="1.0" encoding="utf-8"?>
<!-- Generator: Adobe Illustrator 26.3.1, SVG Export Plug-In . SVG Version: 6.00 Build 0)  -->
<svg version="1.1" id="Layer_1" xmlns="http://www.w3.org/2000/svg" xmlns:xlink="http://www.w3.org/1999/xlink" x="0px" y="0px"
	 viewBox="0 0 128 128" style="enable-background:new 0 0 128 128;" xml:space="preserve">
<path d="M64,68c-9.5,0-17.7-6.7-19.6-16h-12c2,15.8,15.3,28,31.6,28s29.6-12.2,31.6-28h-12C81.7,61.3,73.5,68,64,68z M86.4,88
	c-7.2,0-10.6,4-22.4,4s-15.2-4-22.4-4C23.1,88,8,103,8,121.6c0,0,0,0,0,0c0,3.5,2.9,6.4,6.4,6.4c0,0,0,0,0,0h99.2
	c3.5,0,6.4-2.9,6.4-6.4l0,0C120,103,105,88,86.4,88L86.4,88z M20.7,116c2.5-9.4,11.1-16,20.9-16c3.6,0,9.6,4,22.4,4
	c12.9,0,18.8-4,22.4-4c9.8,0,18.3,6.6,20.9,16H20.7z M30,44h68c1.1,0,2-0.9,2-2v-8c0-1.1-0.9-2-2-2h-2c0-11.6-7.1-21.4-17.2-25.6
	L72,20V4c0-2.2-1.8-4-4-4h-8c-2.2,0-4,1.8-4,4v16L49.2,6.4C39.1,10.6,32,20.4,32,32h-2c-1.1,0-2,0.9-2,2v8C28,43.1,28.9,44,30,44z"
	/>
</svg>
