<?xml version="1.0" encoding="utf-8"?>
<!-- Generator: Adobe Illustrator 26.3.1, SVG Export Plug-In . SVG Version: 6.00 Build 0)  -->
<svg version="1.1" id="Layer_1" xmlns="http://www.w3.org/2000/svg" xmlns:xlink="http://www.w3.org/1999/xlink" x="0px" y="0px"
	 viewBox="0 0 128 128" style="enable-background:new 0 0 128 128;" xml:space="preserve">
<path d="M87.9,87.9h-1.2c-3,0-6,0.7-8.8,1.7c-9,3.1-18.8,3.1-27.8,0c-2.9-1-5.8-1.7-8.8-1.7h-1.2c-17.6,0-31.9,14.3-31.9,31.9
	c0,4.4,3.6,8,8,8h95.6c4.4,0,8-3.6,8-8C119.8,102.2,105.5,87.9,87.9,87.9z M20.6,115.8c1.9-9.3,10.1-15.9,19.5-15.9h1.2
	c1.3,0,2.9,0.3,5,1.1c11.5,3.9,24,3.9,35.5,0c2.1-0.7,3.7-1.1,5-1.1h1.2c9.5,0,17.6,6.7,19.5,15.9L20.6,115.8z M22,56.1
	c3.2,0,5.8-2.6,5.8-5.8v-2.2c0-20,16.2-36.2,36.2-36.2s36.2,16.2,36.2,36.2v3.2c0,9.4-7.7,17.1-17.1,17.1h-5.9
	c-0.9-4.4-4.9-7.6-9.4-7.6h-7.6c-5.3-0.1-9.7,4.2-9.8,9.5c-0.1,5.3,4.2,9.7,9.5,9.8c0.1,0,0.2,0,0.3,0h22.9
	c15.9,0,28.7-12.9,28.7-28.7v-3.2c0-26.4-21.4-47.8-47.8-47.8S16.2,21.7,16.2,48.1v2.2C16.2,53.5,18.8,56.1,22,56.1z M64,32.2
	c8.8,0,15.9,7.1,15.9,15.9c0,2.8-0.8,5.5-2.2,7.9c1.7,1.2,3.3,2.6,4.6,4.4h0.8c3.2,0,5.8-1.7,7.5-4.2c0.8-2.6,1.3-5.3,1.3-8.1
	c0-15.4-12.5-27.9-27.9-27.9S36.1,32.7,36.1,48.1c0,7,2.7,13.4,7,18.3c1-4.3,3.5-8,7.1-10.5c-1.4-2.4-2.1-5.1-2.1-7.8
	C48.1,39.3,55.2,32.2,64,32.2z"/>
</svg>
